<svg width="750" height="254" viewBox="0 0 750 254" fill="none" xmlns="http://www.w3.org/2000/svg">
<path d="M241.95 0.98436H10.0813C4.51353 0.98436 7.62939e-06 5.4979 7.62939e-06 11.0656V242.934C7.62939e-06 248.502 4.51353 253.016 10.0813 253.016H241.95C247.518 253.016 252.031 248.502 252.031 242.934V11.0656C252.031 5.4979 247.518 0.98436 241.95 0.98436Z" fill="#F97316"/>
<path d="M60.9977 183.707H60.2786V106.413C60.2786 96.0166 63.5317 87.4694 70.038 80.7714C76.8729 73.7858 85.7831 70.293 96.7684 70.293C106.685 70.293 115.136 73.7858 122.122 80.7714C123.848 82.4973 125.142 84.1821 126.005 85.8258C127.115 84.141 128.464 82.5247 130.053 80.9769C137.326 73.8543 145.73 70.293 155.263 70.293C166.056 70.293 174.967 73.7858 181.993 80.7714C188.5 87.2229 191.753 95.77 191.753 106.413V177.194L178.028 183.707H177.288V106.413C177.288 99.9614 175.556 94.7359 172.09 90.7363C167.803 85.7778 162.194 83.2986 155.263 83.2986C148.332 83.2986 142.723 85.7778 138.436 90.7363C134.97 94.7359 133.238 99.9614 133.238 106.413V177.194L119.513 183.707H118.794V106.413C118.794 99.9614 117.061 94.7359 113.596 90.7363C109.308 85.7778 103.699 83.2986 96.7684 83.2986C89.8238 83.2986 84.2079 85.7778 79.9206 90.7363C76.4552 94.7359 74.7225 99.9614 74.7225 106.413V177.194L60.9977 183.707Z" fill="white"/>
<path d="M315.62 160.463H315.039V117.362C315.039 111.125 317.383 105.7 322.072 101.086C326.46 96.8062 331.96 94.6662 338.574 94.6662C344.585 94.6662 349.784 96.86 354.172 101.248C355 102.086 355.758 103.07 356.446 104.199C357.124 103.103 357.877 102.14 358.705 101.312C363.436 96.8815 368.636 94.6662 374.303 94.6662C380.841 94.6662 386.342 96.8062 390.804 101.086C395.493 105.624 397.837 111.05 397.837 117.362V155.349L387.062 160.463H386.498V117.362C386.498 113.007 385.315 109.818 382.949 107.797C380.594 105.775 377.712 104.764 374.303 104.764C370.905 104.764 368.023 105.775 365.657 107.797C363.291 109.818 362.108 113.007 362.108 117.362V155.349L351.333 160.463H350.768V117.362C350.768 113.007 349.585 109.818 347.22 107.797C344.865 105.775 341.983 104.764 338.574 104.764C335.175 104.764 332.293 105.775 329.928 107.797C327.562 109.818 326.379 113.007 326.379 117.362V155.349L315.62 160.463ZM461.36 133.073H461.924V136.638C461.924 142.875 459.58 148.3 454.891 152.914C450.504 157.183 445.003 159.318 438.39 159.318C431.851 159.318 426.351 157.183 421.888 152.914C417.199 148.376 414.855 142.95 414.855 136.638V117.362C414.855 111.125 417.199 105.7 421.888 101.086C426.276 96.8062 431.776 94.6662 438.39 94.6662C444.81 94.6662 450.31 96.8062 454.891 101.086C459.58 105.474 461.924 110.351 461.924 115.717V115.83L427.324 142.929C427.894 144.219 428.69 145.3 429.711 146.171C432.088 148.214 434.981 149.236 438.39 149.236C441.788 149.236 444.67 148.214 447.036 146.171C449.401 144.128 450.584 141.461 450.584 138.17L461.36 133.073ZM426.195 117.362V131.476L449.907 112.249C449.294 110.399 448.348 108.926 447.068 107.829C444.681 105.786 441.788 104.764 438.39 104.764C434.981 104.764 432.099 105.775 429.744 107.797C427.378 109.818 426.195 113.007 426.195 117.362ZM522.027 117.362V155.349L511.251 160.463H510.687V154.495C507.665 157.71 503.6 159.318 498.492 159.318C491.427 159.318 485.926 157.183 481.991 152.914C478.065 148.645 476.103 143.596 476.103 137.767C476.103 131.724 478.237 126.583 482.507 122.346C486.625 118.26 491.954 116.217 498.492 116.217C503.148 116.217 507.213 117.824 510.687 121.04C510.687 114.351 509.515 109.947 507.17 107.829C504.901 105.786 502.009 104.764 498.492 104.764H484.717V104.199L489.249 94.6662H498.492C505.116 94.6662 510.617 96.8062 514.994 101.086C519.682 105.657 522.027 111.082 522.027 117.362ZM487.217 137.767C487.217 141.133 488.238 143.913 490.282 146.107C492.239 148.225 494.997 149.284 498.557 149.284C502.256 149.284 505.127 148.209 507.17 146.058C509.439 143.639 510.574 140.913 510.574 137.88C510.574 134.482 509.402 131.724 507.057 129.605C504.713 127.487 501.896 126.427 498.605 126.427C495.175 126.427 492.416 127.546 490.33 129.783C488.255 132.009 487.217 134.67 487.217 137.767ZM542.448 160.463H541.883V75.3902L552.659 70.293H553.223V155.349L542.448 160.463ZM616.165 117.362V155.349L605.389 160.463H604.825V154.495C601.803 157.71 597.738 159.318 592.63 159.318C585.565 159.318 580.064 157.183 576.129 152.914C572.203 148.645 570.241 143.596 570.241 137.767C570.241 131.724 572.376 126.583 576.645 122.346C580.763 118.26 586.092 116.217 592.63 116.217C597.287 116.217 601.351 117.824 604.825 121.04C604.825 114.351 603.653 109.947 601.308 107.829C599.039 105.786 596.147 104.764 592.63 104.764H578.855V104.199L583.387 94.6662H592.63C599.254 94.6662 604.755 96.8062 609.132 101.086C613.82 105.657 616.165 111.082 616.165 117.362ZM581.355 137.767C581.355 141.133 582.376 143.913 584.42 146.107C586.377 148.225 589.135 149.284 592.695 149.284C596.394 149.284 599.265 148.209 601.308 146.058C603.577 143.639 604.712 140.913 604.712 137.88C604.712 134.482 603.54 131.724 601.195 129.605C598.851 127.487 596.034 126.427 592.743 126.427C589.302 126.427 586.544 127.546 584.468 129.783C582.393 132.009 581.355 134.67 581.355 137.767ZM671.751 136.638V117.362C671.751 113.007 670.568 109.818 668.202 107.797C665.836 105.775 662.954 104.764 659.556 104.764C656.147 104.764 653.265 105.775 650.91 107.797C648.544 109.818 647.361 113.007 647.361 117.362V136.638C647.361 140.983 648.544 144.166 650.91 146.187C653.265 148.22 656.147 149.236 659.556 149.236C662.954 149.236 665.836 148.22 668.202 146.187C670.568 144.166 671.751 140.983 671.751 136.638ZM683.09 117.362V136.638C683.09 142.875 680.746 148.3 676.057 152.914C671.67 157.183 666.169 159.318 659.556 159.318C654.566 159.318 650.501 157.71 647.361 154.495V178.61L636.586 183.707H636.021V117.362C636.021 111.125 638.366 105.7 643.054 101.086C647.442 96.8062 652.942 94.6662 659.556 94.6662C666.094 94.6662 671.595 96.8062 676.057 101.086C680.746 105.624 683.09 111.05 683.09 117.362ZM738.66 136.638V117.362C738.66 113.007 737.477 109.818 735.112 107.797C732.756 105.775 729.874 104.764 726.466 104.764C723.067 104.764 720.185 105.775 717.82 107.797C715.454 109.818 714.271 113.007 714.271 117.362V136.638C714.271 140.983 715.454 144.166 717.82 146.187C720.185 148.22 723.067 149.236 726.466 149.236C729.874 149.236 732.756 148.22 735.112 146.187C737.477 144.166 738.66 140.983 738.66 136.638ZM750 117.362V136.638C750 142.875 747.656 148.3 742.967 152.914C738.58 157.183 733.079 159.318 726.466 159.318C721.476 159.318 717.411 157.71 714.271 154.495V178.61L703.496 183.707H702.931V117.362C702.931 111.125 705.275 105.7 709.964 101.086C714.351 96.8062 719.852 94.6662 726.466 94.6662C733.004 94.6662 738.504 96.8062 742.967 101.086C747.656 105.624 750 111.05 750 117.362Z" fill="#F97316"/>
</svg>
